# xmcd
#
# Track frame offsets:
#	150
#	15072
#	34592
#	52987
#	70100
#	89685
#	107777
#	127937
#	146529
#	163557
#	183020
#	200925
#	216855
#	234115
#	255270
#
# Disc length: 3668 seconds
#
# Revision: 2
# Processed by: cddbd v1.5.1PL2 Copyright (c) Steve Scherf et al.
# Submitted via: audiograbber 1.83.01
#
DISCID=bc0e520f
DTITLE=Chartbuster Karaoke - CBE3-13
DYEAR=2003
DGENRE=Karaoke
TTITLE0=Tracy Byrd - Ten Rounds With Jose Cuervo
TTITLE1=Sara Evans - I Keep Looking
TTITLE2=Toby Keith - Who's Your Daddy
TTITLE3=Lee Ann Womack - Why They Call It Feeling
TTITLE4=Kevin Denney - That's Just Jesse
TTITLE5=Faith Hill - Cry
TTITLE6=John Micheal Montgomery - Til Nothing Comes Between Us
TTITLE7=Rebecca Lynn Howard - Forgive
TTITLE8=Tommy Shane Steiner - What If She's An Angel
TTITLE9=Shania Twain - I'm Gonna Getcha Good
TTITLE10=Aaron Lines - You Can't Hide Beautiful
TTITLE11=Terri Clark - I Just Wanna Be Mad 
TTITLE12=George Strait - Living And Living Well
TTITLE13=Tammy Cochran - Life Happened
TTITLE14=Kenny Chesney - Young
EXTD=
EXTT0=
EXTT1=
EXTT2=
EXTT3=
EXTT4=
EXTT5=
EXTT6=
EXTT7=
EXTT8=
EXTT9=
EXTT10=
EXTT11=
EXTT12=
EXTT13=
EXTT14=
PLAYORDER=
